ISO-10303-21;
HEADER;
FILE_DESCRIPTION(('FreeCAD Model'),'2;1');
FILE_NAME('Open CASCADE Shape Model','2026-06-11T16:55:09',('Author'),(
    ''),'Open CASCADE STEP processor 7.8','FreeCAD','Unknown');
FILE_SCHEMA(('AUTOMOTIVE_DESIGN { 1 0 10303 214 1 1 1 1 }'));
ENDSEC;
DATA;
#1 = APPLICATION_PROTOCOL_DEFINITION('international standard',
  'automotive_design',2000,#2);
#2 = APPLICATION_CONTEXT(
  'core data for automotive mechanical design processes');
#3 = SHAPE_DEFINITION_REPRESENTATION(#4,#10);
#4 = PRODUCT_DEFINITION_SHAPE('','',#5);
#5 = PRODUCT_DEFINITION('design','',#6,#9);
#6 = PRODUCT_DEFINITION_FORMATION('','',#7);
#7 = PRODUCT('Cut','Cut','',(#8));
#8 = PRODUCT_CONTEXT('',#2,'mechanical');
#9 = PRODUCT_DEFINITION_CONTEXT('part definition',#2,'design');
#10 = ADVANCED_BREP_SHAPE_REPRESENTATION('',(#11,#15),#737);
#11 = AXIS2_PLACEMENT_3D('',#12,#13,#14);
#12 = CARTESIAN_POINT('',(0.,0.,0.));
#13 = DIRECTION('',(0.,0.,1.));
#14 = DIRECTION('',(1.,0.,-0.));
#15 = MANIFOLD_SOLID_BREP('',#16);
#16 = CLOSED_SHELL('',(#17,#59,#98,#137,#209,#281,#298,#347,#435,#452,
    #469,#486,#503,#520,#606,#623,#640,#652,#669,#686,#703,#720));
#17 = ADVANCED_FACE('',(#18),#54,.T.);
#18 = FACE_BOUND('',#19,.F.);
#19 = EDGE_LOOP('',(#20,#30,#39,#47));
#20 = ORIENTED_EDGE('',*,*,#21,.T.);
#21 = EDGE_CURVE('',#22,#24,#26,.T.);
#22 = VERTEX_POINT('',#23);
#23 = CARTESIAN_POINT('',(-12.45,23.,0.));
#24 = VERTEX_POINT('',#25);
#25 = CARTESIAN_POINT('',(-12.45,28.,-1.E-15));
#26 = LINE('',#27,#28);
#27 = CARTESIAN_POINT('',(-12.45,23.,0.));
#28 = VECTOR('',#29,1.);
#29 = DIRECTION('',(0.,1.,-2.2E-16));
#30 = ORIENTED_EDGE('',*,*,#31,.T.);
#31 = EDGE_CURVE('',#24,#32,#34,.T.);
#32 = VERTEX_POINT('',#33);
#33 = CARTESIAN_POINT('',(12.45,28.,0.));
#34 = CIRCLE('',#35,12.45);
#35 = AXIS2_PLACEMENT_3D('',#36,#37,#38);
#36 = CARTESIAN_POINT('',(0.,28.,-1.E-15));
#37 = DIRECTION('',(0.,1.,-0.));
#38 = DIRECTION('',(-1.,0.,0.));
#39 = ORIENTED_EDGE('',*,*,#40,.F.);
#40 = EDGE_CURVE('',#41,#32,#43,.T.);
#41 = VERTEX_POINT('',#42);
#42 = CARTESIAN_POINT('',(12.45,23.,2.E-15));
#43 = LINE('',#44,#45);
#44 = CARTESIAN_POINT('',(12.45,23.,1.52E-15));
#45 = VECTOR('',#46,1.);
#46 = DIRECTION('',(0.,1.,-2.2E-16));
#47 = ORIENTED_EDGE('',*,*,#48,.F.);
#48 = EDGE_CURVE('',#22,#41,#49,.T.);
#49 = CIRCLE('',#50,12.45);
#50 = AXIS2_PLACEMENT_3D('',#51,#52,#53);
#51 = CARTESIAN_POINT('',(0.,23.,0.));
#52 = DIRECTION('',(0.,1.,-0.));
#53 = DIRECTION('',(-1.,0.,0.));
#54 = CYLINDRICAL_SURFACE('',#55,12.45);
#55 = AXIS2_PLACEMENT_3D('',#56,#57,#58);
#56 = CARTESIAN_POINT('',(0.,23.,0.));
#57 = DIRECTION('',(0.,-1.,2.2E-16));
#58 = DIRECTION('',(-1.,0.,0.));
#59 = ADVANCED_FACE('',(#60),#93,.T.);
#60 = FACE_BOUND('',#61,.T.);
#61 = EDGE_LOOP('',(#62,#72,#80,#86,#87));
#62 = ORIENTED_EDGE('',*,*,#63,.F.);
#63 = EDGE_CURVE('',#64,#66,#68,.T.);
#64 = VERTEX_POINT('',#65);
#65 = CARTESIAN_POINT('',(-12.45,23.,-19.5));
#66 = VERTEX_POINT('',#67);
#67 = CARTESIAN_POINT('',(-12.45,28.,-19.5));
#68 = LINE('',#69,#70);
#69 = CARTESIAN_POINT('',(-12.45,23.,-19.5));
#70 = VECTOR('',#71,1.);
#71 = DIRECTION('',(0.,1.,-2.2E-16));
#72 = ORIENTED_EDGE('',*,*,#73,.F.);
#73 = EDGE_CURVE('',#74,#64,#76,.T.);
#74 = VERTEX_POINT('',#75);
#75 = CARTESIAN_POINT('',(-12.45,23.,-14.506824));
#76 = LINE('',#77,#78);
#77 = CARTESIAN_POINT('',(-12.45,23.,0.));
#78 = VECTOR('',#79,1.);
#79 = DIRECTION('',(0.,-2.2E-16,-1.));
#80 = ORIENTED_EDGE('',*,*,#81,.F.);
#81 = EDGE_CURVE('',#22,#74,#82,.T.);
#82 = LINE('',#83,#84);
#83 = CARTESIAN_POINT('',(-12.45,23.,0.));
#84 = VECTOR('',#85,1.);
#85 = DIRECTION('',(0.,-2.2E-16,-1.));
#86 = ORIENTED_EDGE('',*,*,#21,.T.);
#87 = ORIENTED_EDGE('',*,*,#88,.F.);
#88 = EDGE_CURVE('',#66,#24,#89,.T.);
#89 = LINE('',#90,#91);
#90 = CARTESIAN_POINT('',(-12.45,28.,-19.5));
#91 = VECTOR('',#92,1.);
#92 = DIRECTION('',(0.,2.2E-16,1.));
#93 = PLANE('',#94);
#94 = AXIS2_PLACEMENT_3D('',#95,#96,#97);
#95 = CARTESIAN_POINT('',(-12.45,25.5,-9.75));
#96 = DIRECTION('',(-1.,-0.,-0.));
#97 = DIRECTION('',(0.,0.,-1.));
#98 = ADVANCED_FACE('',(#99),#132,.T.);
#99 = FACE_BOUND('',#100,.T.);
#100 = EDGE_LOOP('',(#101,#102,#110,#118,#126));
#101 = ORIENTED_EDGE('',*,*,#40,.F.);
#102 = ORIENTED_EDGE('',*,*,#103,.T.);
#103 = EDGE_CURVE('',#41,#104,#106,.T.);
#104 = VERTEX_POINT('',#105);
#105 = CARTESIAN_POINT('',(12.45,23.,-14.506824));
#106 = LINE('',#107,#108);
#107 = CARTESIAN_POINT('',(12.45,23.,-14.5));
#108 = VECTOR('',#109,1.);
#109 = DIRECTION('',(0.,-2.2E-16,-1.));
#110 = ORIENTED_EDGE('',*,*,#111,.T.);
#111 = EDGE_CURVE('',#104,#112,#114,.T.);
#112 = VERTEX_POINT('',#113);
#113 = CARTESIAN_POINT('',(12.45,23.,-19.5));
#114 = LINE('',#115,#116);
#115 = CARTESIAN_POINT('',(12.45,23.,-14.5));
#116 = VECTOR('',#117,1.);
#117 = DIRECTION('',(0.,-2.2E-16,-1.));
#118 = ORIENTED_EDGE('',*,*,#119,.T.);
#119 = EDGE_CURVE('',#112,#120,#122,.T.);
#120 = VERTEX_POINT('',#121);
#121 = CARTESIAN_POINT('',(12.45,28.,-19.5));
#122 = LINE('',#123,#124);
#123 = CARTESIAN_POINT('',(12.45,23.,-19.5));
#124 = VECTOR('',#125,1.);
#125 = DIRECTION('',(0.,1.,-2.2E-16));
#126 = ORIENTED_EDGE('',*,*,#127,.F.);
#127 = EDGE_CURVE('',#32,#120,#128,.T.);
#128 = LINE('',#129,#130);
#129 = CARTESIAN_POINT('',(12.45,28.,4.1E-16));
#130 = VECTOR('',#131,1.);
#131 = DIRECTION('',(0.,-2.2E-16,-1.));
#132 = PLANE('',#133);
#133 = AXIS2_PLACEMENT_3D('',#134,#135,#136);
#134 = CARTESIAN_POINT('',(12.45,25.5,-9.75));
#135 = DIRECTION('',(1.,0.,0.));
#136 = DIRECTION('',(0.,0.,1.));
#137 = ADVANCED_FACE('',(#138,#149,#160,#171,#182,#193),#204,.F.);
#138 = FACE_BOUND('',#139,.F.);
#139 = EDGE_LOOP('',(#140,#141,#142,#143));
#140 = ORIENTED_EDGE('',*,*,#81,.F.);
#141 = ORIENTED_EDGE('',*,*,#48,.T.);
#142 = ORIENTED_EDGE('',*,*,#103,.T.);
#143 = ORIENTED_EDGE('',*,*,#144,.T.);
#144 = EDGE_CURVE('',#104,#74,#145,.T.);
#145 = LINE('',#146,#147);
#146 = CARTESIAN_POINT('',(12.452121,23.,-14.506824));
#147 = VECTOR('',#148,1.);
#148 = DIRECTION('',(-1.,0.,0.));
#149 = FACE_BOUND('',#150,.F.);
#150 = EDGE_LOOP('',(#151));
#151 = ORIENTED_EDGE('',*,*,#152,.F.);
#152 = EDGE_CURVE('',#153,#153,#155,.T.);
#153 = VERTEX_POINT('',#154);
#154 = CARTESIAN_POINT('',(-1.75,23.,-8.503603));
#155 = CIRCLE('',#156,1.75);
#156 = AXIS2_PLACEMENT_3D('',#157,#158,#159);
#157 = CARTESIAN_POINT('',(0.,23.,-8.503603));
#158 = DIRECTION('',(0.,1.,-0.));
#159 = DIRECTION('',(-1.,0.,0.));
#160 = FACE_BOUND('',#161,.F.);
#161 = EDGE_LOOP('',(#162));
#162 = ORIENTED_EDGE('',*,*,#163,.F.);
#163 = EDGE_CURVE('',#164,#164,#166,.T.);
#164 = VERTEX_POINT('',#165);
#165 = CARTESIAN_POINT('',(-11.12245,23.,0.));
#166 = CIRCLE('',#167,2.625);
#167 = AXIS2_PLACEMENT_3D('',#168,#169,#170);
#168 = CARTESIAN_POINT('',(-8.49745,23.,0.));
#169 = DIRECTION('',(0.,1.,-0.));
#170 = DIRECTION('',(-1.,0.,0.));
#171 = FACE_BOUND('',#172,.F.);
#172 = EDGE_LOOP('',(#173));
#173 = ORIENTED_EDGE('',*,*,#174,.F.);
#174 = EDGE_CURVE('',#175,#175,#177,.T.);
#175 = VERTEX_POINT('',#176);
#176 = CARTESIAN_POINT('',(-3.75,23.,0.));
#177 = CIRCLE('',#178,3.75);
#178 = AXIS2_PLACEMENT_3D('',#179,#180,#181);
#179 = CARTESIAN_POINT('',(0.,23.,0.));
#180 = DIRECTION('',(0.,1.,-0.));
#181 = DIRECTION('',(-1.,0.,0.));
#182 = FACE_BOUND('',#183,.F.);
#183 = EDGE_LOOP('',(#184));
#184 = ORIENTED_EDGE('',*,*,#185,.F.);
#185 = EDGE_CURVE('',#186,#186,#188,.T.);
#186 = VERTEX_POINT('',#187);
#187 = CARTESIAN_POINT('',(-1.75,23.,8.496179));
#188 = CIRCLE('',#189,1.75);
#189 = AXIS2_PLACEMENT_3D('',#190,#191,#192);
#190 = CARTESIAN_POINT('',(0.,23.,8.496179));
#191 = DIRECTION('',(0.,1.,-0.));
#192 = DIRECTION('',(-1.,0.,0.));
#193 = FACE_BOUND('',#194,.F.);
#194 = EDGE_LOOP('',(#195));
#195 = ORIENTED_EDGE('',*,*,#196,.F.);
#196 = EDGE_CURVE('',#197,#197,#199,.T.);
#197 = VERTEX_POINT('',#198);
#198 = CARTESIAN_POINT('',(5.87591,23.,0.));
#199 = CIRCLE('',#200,2.625);
#200 = AXIS2_PLACEMENT_3D('',#201,#202,#203);
#201 = CARTESIAN_POINT('',(8.50091,23.,0.));
#202 = DIRECTION('',(0.,1.,-0.));
#203 = DIRECTION('',(-1.,0.,0.));
#204 = PLANE('',#205);
#205 = AXIS2_PLACEMENT_3D('',#206,#207,#208);
#206 = CARTESIAN_POINT('',(2.184890652568E-04,23.,-6.108720667895));
#207 = DIRECTION('',(0.,1.,-2.4E-16));
#208 = DIRECTION('',(0.,2.4E-16,1.));
#209 = ADVANCED_FACE('',(#210,#221,#232,#243,#254,#265),#276,.T.);
#210 = FACE_BOUND('',#211,.T.);
#211 = EDGE_LOOP('',(#212,#213,#214,#220));
#212 = ORIENTED_EDGE('',*,*,#31,.T.);
#213 = ORIENTED_EDGE('',*,*,#127,.T.);
#214 = ORIENTED_EDGE('',*,*,#215,.T.);
#215 = EDGE_CURVE('',#120,#66,#216,.T.);
#216 = LINE('',#217,#218);
#217 = CARTESIAN_POINT('',(12.45,28.,-19.5));
#218 = VECTOR('',#219,1.);
#219 = DIRECTION('',(-1.,0.,0.));
#220 = ORIENTED_EDGE('',*,*,#88,.T.);
#221 = FACE_BOUND('',#222,.F.);
#222 = EDGE_LOOP('',(#223));
#223 = ORIENTED_EDGE('',*,*,#224,.T.);
#224 = EDGE_CURVE('',#225,#225,#227,.T.);
#225 = VERTEX_POINT('',#226);
#226 = CARTESIAN_POINT('',(-3.75,28.,-1.E-15));
#227 = CIRCLE('',#228,3.75);
#228 = AXIS2_PLACEMENT_3D('',#229,#230,#231);
#229 = CARTESIAN_POINT('',(0.,28.,-1.E-15));
#230 = DIRECTION('',(0.,1.,-0.));
#231 = DIRECTION('',(-1.,0.,0.));
#232 = FACE_BOUND('',#233,.F.);
#233 = EDGE_LOOP('',(#234));
#234 = ORIENTED_EDGE('',*,*,#235,.T.);
#235 = EDGE_CURVE('',#236,#236,#238,.T.);
#236 = VERTEX_POINT('',#237);
#237 = CARTESIAN_POINT('',(-11.12245,28.,-1.E-15));
#238 = CIRCLE('',#239,2.625);
#239 = AXIS2_PLACEMENT_3D('',#240,#241,#242);
#240 = CARTESIAN_POINT('',(-8.49745,28.,-1.E-15));
#241 = DIRECTION('',(0.,1.,-0.));
#242 = DIRECTION('',(-1.,0.,0.));
#243 = FACE_BOUND('',#244,.F.);
#244 = EDGE_LOOP('',(#245));
#245 = ORIENTED_EDGE('',*,*,#246,.T.);
#246 = EDGE_CURVE('',#247,#247,#249,.T.);
#247 = VERTEX_POINT('',#248);
#248 = CARTESIAN_POINT('',(5.87591,28.,-1.E-15));
#249 = CIRCLE('',#250,2.625);
#250 = AXIS2_PLACEMENT_3D('',#251,#252,#253);
#251 = CARTESIAN_POINT('',(8.50091,28.,-1.E-15));
#252 = DIRECTION('',(0.,1.,-0.));
#253 = DIRECTION('',(-1.,0.,0.));
#254 = FACE_BOUND('',#255,.F.);
#255 = EDGE_LOOP('',(#256));
#256 = ORIENTED_EDGE('',*,*,#257,.T.);
#257 = EDGE_CURVE('',#258,#258,#260,.T.);
#258 = VERTEX_POINT('',#259);
#259 = CARTESIAN_POINT('',(-1.75,28.,-8.503603));
#260 = CIRCLE('',#261,1.75);
#261 = AXIS2_PLACEMENT_3D('',#262,#263,#264);
#262 = CARTESIAN_POINT('',(0.,28.,-8.503603));
#263 = DIRECTION('',(0.,1.,-0.));
#264 = DIRECTION('',(-1.,0.,0.));
#265 = FACE_BOUND('',#266,.F.);
#266 = EDGE_LOOP('',(#267));
#267 = ORIENTED_EDGE('',*,*,#268,.T.);
#268 = EDGE_CURVE('',#269,#269,#271,.T.);
#269 = VERTEX_POINT('',#270);
#270 = CARTESIAN_POINT('',(-1.75,28.,8.496179));
#271 = CIRCLE('',#272,1.75);
#272 = AXIS2_PLACEMENT_3D('',#273,#274,#275);
#273 = CARTESIAN_POINT('',(0.,28.,8.496179));
#274 = DIRECTION('',(0.,1.,-0.));
#275 = DIRECTION('',(-1.,0.,0.));
#276 = PLANE('',#277);
#277 = AXIS2_PLACEMENT_3D('',#278,#279,#280);
#278 = CARTESIAN_POINT('',(2.184890652568E-04,28.,-6.108720667895));
#279 = DIRECTION('',(0.,1.,-2.4E-16));
#280 = DIRECTION('',(0.,2.4E-16,1.));
#281 = ADVANCED_FACE('',(#282),#293,.F.);
#282 = FACE_BOUND('',#283,.F.);
#283 = EDGE_LOOP('',(#284,#285,#286,#287));
#284 = ORIENTED_EDGE('',*,*,#119,.T.);
#285 = ORIENTED_EDGE('',*,*,#215,.T.);
#286 = ORIENTED_EDGE('',*,*,#63,.F.);
#287 = ORIENTED_EDGE('',*,*,#288,.F.);
#288 = EDGE_CURVE('',#112,#64,#289,.T.);
#289 = LINE('',#290,#291);
#290 = CARTESIAN_POINT('',(12.45,23.,-19.5));
#291 = VECTOR('',#292,1.);
#292 = DIRECTION('',(-1.,0.,0.));
#293 = PLANE('',#294);
#294 = AXIS2_PLACEMENT_3D('',#295,#296,#297);
#295 = CARTESIAN_POINT('',(12.45,23.,-19.5));
#296 = DIRECTION('',(0.,2.2E-16,1.));
#297 = DIRECTION('',(-1.,0.,0.));
#298 = ADVANCED_FACE('',(#299),#342,.T.);
#299 = FACE_BOUND('',#300,.T.);
#300 = EDGE_LOOP('',(#301,#311,#319,#325,#326,#327,#328,#336));
#301 = ORIENTED_EDGE('',*,*,#302,.F.);
#302 = EDGE_CURVE('',#303,#305,#307,.T.);
#303 = VERTEX_POINT('',#304);
#304 = CARTESIAN_POINT('',(-12.457879,23.,-19.506824));
#305 = VERTEX_POINT('',#306);
#306 = CARTESIAN_POINT('',(12.452121,23.,-19.506824));
#307 = LINE('',#308,#309);
#308 = CARTESIAN_POINT('',(-12.457879,23.,-19.506824));
#309 = VECTOR('',#310,1.);
#310 = DIRECTION('',(1.,0.,0.));
#311 = ORIENTED_EDGE('',*,*,#312,.F.);
#312 = EDGE_CURVE('',#313,#303,#315,.T.);
#313 = VERTEX_POINT('',#314);
#314 = CARTESIAN_POINT('',(-12.457879,23.,-14.506824));
#315 = LINE('',#316,#317);
#316 = CARTESIAN_POINT('',(-12.457879,23.,-14.506824));
#317 = VECTOR('',#318,1.);
#318 = DIRECTION('',(0.,0.,-1.));
#319 = ORIENTED_EDGE('',*,*,#320,.F.);
#320 = EDGE_CURVE('',#74,#313,#321,.T.);
#321 = LINE('',#322,#323);
#322 = CARTESIAN_POINT('',(12.452121,23.,-14.506824));
#323 = VECTOR('',#324,1.);
#324 = DIRECTION('',(-1.,0.,0.));
#325 = ORIENTED_EDGE('',*,*,#73,.T.);
#326 = ORIENTED_EDGE('',*,*,#288,.F.);
#327 = ORIENTED_EDGE('',*,*,#111,.F.);
#328 = ORIENTED_EDGE('',*,*,#329,.F.);
#329 = EDGE_CURVE('',#330,#104,#332,.T.);
#330 = VERTEX_POINT('',#331);
#331 = CARTESIAN_POINT('',(12.452121,23.,-14.506824));
#332 = LINE('',#333,#334);
#333 = CARTESIAN_POINT('',(12.452121,23.,-14.506824));
#334 = VECTOR('',#335,1.);
#335 = DIRECTION('',(-1.,0.,0.));
#336 = ORIENTED_EDGE('',*,*,#337,.F.);
#337 = EDGE_CURVE('',#305,#330,#338,.T.);
#338 = LINE('',#339,#340);
#339 = CARTESIAN_POINT('',(12.452121,23.,-19.506824));
#340 = VECTOR('',#341,1.);
#341 = DIRECTION('',(0.,0.,1.));
#342 = PLANE('',#343);
#343 = AXIS2_PLACEMENT_3D('',#344,#345,#346);
#344 = CARTESIAN_POINT('',(-2.879000000001E-03,23.,-17.006824));
#345 = DIRECTION('',(0.,1.,0.));
#346 = DIRECTION('',(0.,0.,1.));
#347 = ADVANCED_FACE('',(#348,#375,#386,#397,#408,#419),#430,.F.);
#348 = FACE_BOUND('',#349,.F.);
#349 = EDGE_LOOP('',(#350,#358,#366,#372,#373,#374));
#350 = ORIENTED_EDGE('',*,*,#351,.T.);
#351 = EDGE_CURVE('',#330,#352,#354,.T.);
#352 = VERTEX_POINT('',#353);
#353 = CARTESIAN_POINT('',(12.452121,-8.,-14.506824));
#354 = LINE('',#355,#356);
#355 = CARTESIAN_POINT('',(12.452121,23.,-14.506824));
#356 = VECTOR('',#357,1.);
#357 = DIRECTION('',(0.,-1.,2.2E-16));
#358 = ORIENTED_EDGE('',*,*,#359,.T.);
#359 = EDGE_CURVE('',#352,#360,#362,.T.);
#360 = VERTEX_POINT('',#361);
#361 = CARTESIAN_POINT('',(-12.457879,-8.,-14.506824));
#362 = LINE('',#363,#364);
#363 = CARTESIAN_POINT('',(12.452121,-8.,-14.506824));
#364 = VECTOR('',#365,1.);
#365 = DIRECTION('',(-1.,0.,0.));
#366 = ORIENTED_EDGE('',*,*,#367,.F.);
#367 = EDGE_CURVE('',#313,#360,#368,.T.);
#368 = LINE('',#369,#370);
#369 = CARTESIAN_POINT('',(-12.457879,23.,-14.506824));
#370 = VECTOR('',#371,1.);
#371 = DIRECTION('',(0.,-1.,2.2E-16));
#372 = ORIENTED_EDGE('',*,*,#320,.F.);
#373 = ORIENTED_EDGE('',*,*,#144,.F.);
#374 = ORIENTED_EDGE('',*,*,#329,.F.);
#375 = FACE_BOUND('',#376,.F.);
#376 = EDGE_LOOP('',(#377));
#377 = ORIENTED_EDGE('',*,*,#378,.F.);
#378 = EDGE_CURVE('',#379,#379,#381,.T.);
#379 = VERTEX_POINT('',#380);
#380 = CARTESIAN_POINT('',(9.4998,-4.E-15,-14.506824));
#381 = CIRCLE('',#382,1.5);
#382 = AXIS2_PLACEMENT_3D('',#383,#384,#385);
#383 = CARTESIAN_POINT('',(7.9998,-4.33E-15,-14.506824));
#384 = DIRECTION('',(0.,0.,-1.));
#385 = DIRECTION('',(1.,0.,0.));
#386 = FACE_BOUND('',#387,.F.);
#387 = EDGE_LOOP('',(#388));
#388 = ORIENTED_EDGE('',*,*,#389,.F.);
#389 = EDGE_CURVE('',#390,#390,#392,.T.);
#390 = VERTEX_POINT('',#391);
#391 = CARTESIAN_POINT('',(-6.4998,-4.E-15,-14.506824));
#392 = CIRCLE('',#393,1.5);
#393 = AXIS2_PLACEMENT_3D('',#394,#395,#396);
#394 = CARTESIAN_POINT('',(-7.9998,-4.33E-15,-14.506824));
#395 = DIRECTION('',(0.,0.,-1.));
#396 = DIRECTION('',(1.,0.,0.));
#397 = FACE_BOUND('',#398,.F.);
#398 = EDGE_LOOP('',(#399));
#399 = ORIENTED_EDGE('',*,*,#400,.F.);
#400 = EDGE_CURVE('',#401,#401,#403,.T.);
#401 = VERTEX_POINT('',#402);
#402 = CARTESIAN_POINT('',(5.,6.855556,-14.506824));
#403 = CIRCLE('',#404,5.);
#404 = AXIS2_PLACEMENT_3D('',#405,#406,#407);
#405 = CARTESIAN_POINT('',(0.,6.855556,-14.506824));
#406 = DIRECTION('',(0.,0.,-1.));
#407 = DIRECTION('',(1.,0.,0.));
#408 = FACE_BOUND('',#409,.F.);
#409 = EDGE_LOOP('',(#410));
#410 = ORIENTED_EDGE('',*,*,#411,.F.);
#411 = EDGE_CURVE('',#412,#412,#414,.T.);
#412 = VERTEX_POINT('',#413);
#413 = CARTESIAN_POINT('',(9.50011,14.0002,-14.506824));
#414 = CIRCLE('',#415,1.5);
#415 = AXIS2_PLACEMENT_3D('',#416,#417,#418);
#416 = CARTESIAN_POINT('',(8.00011,14.0002,-14.506824));
#417 = DIRECTION('',(0.,0.,-1.));
#418 = DIRECTION('',(1.,0.,0.));
#419 = FACE_BOUND('',#420,.F.);
#420 = EDGE_LOOP('',(#421));
#421 = ORIENTED_EDGE('',*,*,#422,.F.);
#422 = EDGE_CURVE('',#423,#423,#425,.T.);
#423 = VERTEX_POINT('',#424);
#424 = CARTESIAN_POINT('',(-6.49857,13.998,-14.506824));
#425 = CIRCLE('',#426,1.5);
#426 = AXIS2_PLACEMENT_3D('',#427,#428,#429);
#427 = CARTESIAN_POINT('',(-7.99857,13.998,-14.506824));
#428 = DIRECTION('',(0.,0.,-1.));
#429 = DIRECTION('',(1.,0.,0.));
#430 = PLANE('',#431);
#431 = AXIS2_PLACEMENT_3D('',#432,#433,#434);
#432 = CARTESIAN_POINT('',(12.452121,23.,-14.506824));
#433 = DIRECTION('',(-0.,-2.2E-16,-1.));
#434 = DIRECTION('',(-1.,0.,0.));
#435 = ADVANCED_FACE('',(#436),#447,.F.);
#436 = FACE_BOUND('',#437,.T.);
#437 = EDGE_LOOP('',(#438,#444,#445,#446));
#438 = ORIENTED_EDGE('',*,*,#439,.T.);
#439 = EDGE_CURVE('',#153,#258,#440,.T.);
#440 = LINE('',#441,#442);
#441 = CARTESIAN_POINT('',(-1.75,23.,-8.503603));
#442 = VECTOR('',#443,1.);
#443 = DIRECTION('',(0.,1.,-2.2E-16));
#444 = ORIENTED_EDGE('',*,*,#257,.T.);
#445 = ORIENTED_EDGE('',*,*,#439,.F.);
#446 = ORIENTED_EDGE('',*,*,#152,.F.);
#447 = CYLINDRICAL_SURFACE('',#448,1.75);
#448 = AXIS2_PLACEMENT_3D('',#449,#450,#451);
#449 = CARTESIAN_POINT('',(0.,23.,-8.503603));
#450 = DIRECTION('',(0.,-1.,2.2E-16));
#451 = DIRECTION('',(-1.,0.,0.));
#452 = ADVANCED_FACE('',(#453),#464,.F.);
#453 = FACE_BOUND('',#454,.T.);
#454 = EDGE_LOOP('',(#455,#461,#462,#463));
#455 = ORIENTED_EDGE('',*,*,#456,.T.);
#456 = EDGE_CURVE('',#164,#236,#457,.T.);
#457 = LINE('',#458,#459);
#458 = CARTESIAN_POINT('',(-11.12245,23.,0.));
#459 = VECTOR('',#460,1.);
#460 = DIRECTION('',(0.,1.,-2.2E-16));
#461 = ORIENTED_EDGE('',*,*,#235,.T.);
#462 = ORIENTED_EDGE('',*,*,#456,.F.);
#463 = ORIENTED_EDGE('',*,*,#163,.F.);
#464 = CYLINDRICAL_SURFACE('',#465,2.625);
#465 = AXIS2_PLACEMENT_3D('',#466,#467,#468);
#466 = CARTESIAN_POINT('',(-8.49745,23.,0.));
#467 = DIRECTION('',(0.,-1.,2.2E-16));
#468 = DIRECTION('',(-1.,0.,0.));
#469 = ADVANCED_FACE('',(#470),#481,.F.);
#470 = FACE_BOUND('',#471,.T.);
#471 = EDGE_LOOP('',(#472,#478,#479,#480));
#472 = ORIENTED_EDGE('',*,*,#473,.T.);
#473 = EDGE_CURVE('',#175,#225,#474,.T.);
#474 = LINE('',#475,#476);
#475 = CARTESIAN_POINT('',(-3.75,23.,0.));
#476 = VECTOR('',#477,1.);
#477 = DIRECTION('',(0.,1.,-2.2E-16));
#478 = ORIENTED_EDGE('',*,*,#224,.T.);
#479 = ORIENTED_EDGE('',*,*,#473,.F.);
#480 = ORIENTED_EDGE('',*,*,#174,.F.);
#481 = CYLINDRICAL_SURFACE('',#482,3.75);
#482 = AXIS2_PLACEMENT_3D('',#483,#484,#485);
#483 = CARTESIAN_POINT('',(0.,23.,0.));
#484 = DIRECTION('',(0.,-1.,2.2E-16));
#485 = DIRECTION('',(-1.,0.,0.));
#486 = ADVANCED_FACE('',(#487),#498,.F.);
#487 = FACE_BOUND('',#488,.T.);
#488 = EDGE_LOOP('',(#489,#495,#496,#497));
#489 = ORIENTED_EDGE('',*,*,#490,.T.);
#490 = EDGE_CURVE('',#186,#269,#491,.T.);
#491 = LINE('',#492,#493);
#492 = CARTESIAN_POINT('',(-1.75,23.,8.496179));
#493 = VECTOR('',#494,1.);
#494 = DIRECTION('',(0.,1.,-2.2E-16));
#495 = ORIENTED_EDGE('',*,*,#268,.T.);
#496 = ORIENTED_EDGE('',*,*,#490,.F.);
#497 = ORIENTED_EDGE('',*,*,#185,.F.);
#498 = CYLINDRICAL_SURFACE('',#499,1.75);
#499 = AXIS2_PLACEMENT_3D('',#500,#501,#502);
#500 = CARTESIAN_POINT('',(0.,23.,8.496179));
#501 = DIRECTION('',(0.,-1.,2.2E-16));
#502 = DIRECTION('',(-1.,0.,0.));
#503 = ADVANCED_FACE('',(#504),#515,.F.);
#504 = FACE_BOUND('',#505,.T.);
#505 = EDGE_LOOP('',(#506,#512,#513,#514));
#506 = ORIENTED_EDGE('',*,*,#507,.T.);
#507 = EDGE_CURVE('',#197,#247,#508,.T.);
#508 = LINE('',#509,#510);
#509 = CARTESIAN_POINT('',(5.87591,23.,0.));
#510 = VECTOR('',#511,1.);
#511 = DIRECTION('',(0.,1.,-2.2E-16));
#512 = ORIENTED_EDGE('',*,*,#246,.T.);
#513 = ORIENTED_EDGE('',*,*,#507,.F.);
#514 = ORIENTED_EDGE('',*,*,#196,.F.);
#515 = CYLINDRICAL_SURFACE('',#516,2.625);
#516 = AXIS2_PLACEMENT_3D('',#517,#518,#519);
#517 = CARTESIAN_POINT('',(8.50091,23.,0.));
#518 = DIRECTION('',(0.,-1.,2.2E-16));
#519 = DIRECTION('',(-1.,0.,0.));
#520 = ADVANCED_FACE('',(#521,#546,#557,#568,#579,#590),#601,.F.);
#521 = FACE_BOUND('',#522,.F.);
#522 = EDGE_LOOP('',(#523,#531,#539,#545));
#523 = ORIENTED_EDGE('',*,*,#524,.T.);
#524 = EDGE_CURVE('',#303,#525,#527,.T.);
#525 = VERTEX_POINT('',#526);
#526 = CARTESIAN_POINT('',(-12.457879,-8.,-19.506824));
#527 = LINE('',#528,#529);
#528 = CARTESIAN_POINT('',(-12.457879,23.,-19.506824));
#529 = VECTOR('',#530,1.);
#530 = DIRECTION('',(0.,-1.,2.2E-16));
#531 = ORIENTED_EDGE('',*,*,#532,.T.);
#532 = EDGE_CURVE('',#525,#533,#535,.T.);
#533 = VERTEX_POINT('',#534);
#534 = CARTESIAN_POINT('',(12.452121,-8.,-19.506824));
#535 = LINE('',#536,#537);
#536 = CARTESIAN_POINT('',(-12.457879,-8.,-19.506824));
#537 = VECTOR('',#538,1.);
#538 = DIRECTION('',(1.,0.,0.));
#539 = ORIENTED_EDGE('',*,*,#540,.F.);
#540 = EDGE_CURVE('',#305,#533,#541,.T.);
#541 = LINE('',#542,#543);
#542 = CARTESIAN_POINT('',(12.452121,23.,-19.506824));
#543 = VECTOR('',#544,1.);
#544 = DIRECTION('',(0.,-1.,2.2E-16));
#545 = ORIENTED_EDGE('',*,*,#302,.F.);
#546 = FACE_BOUND('',#547,.F.);
#547 = EDGE_LOOP('',(#548));
#548 = ORIENTED_EDGE('',*,*,#549,.T.);
#549 = EDGE_CURVE('',#550,#550,#552,.T.);
#550 = VERTEX_POINT('',#551);
#551 = CARTESIAN_POINT('',(-6.4998,-4.E-15,-19.506824));
#552 = CIRCLE('',#553,1.5);
#553 = AXIS2_PLACEMENT_3D('',#554,#555,#556);
#554 = CARTESIAN_POINT('',(-7.9998,-4.33E-15,-19.506824));
#555 = DIRECTION('',(0.,0.,-1.));
#556 = DIRECTION('',(1.,0.,0.));
#557 = FACE_BOUND('',#558,.F.);
#558 = EDGE_LOOP('',(#559));
#559 = ORIENTED_EDGE('',*,*,#560,.T.);
#560 = EDGE_CURVE('',#561,#561,#563,.T.);
#561 = VERTEX_POINT('',#562);
#562 = CARTESIAN_POINT('',(5.,6.855556,-19.506824));
#563 = CIRCLE('',#564,5.);
#564 = AXIS2_PLACEMENT_3D('',#565,#566,#567);
#565 = CARTESIAN_POINT('',(0.,6.855556,-19.506824));
#566 = DIRECTION('',(0.,0.,-1.));
#567 = DIRECTION('',(1.,0.,0.));
#568 = FACE_BOUND('',#569,.F.);
#569 = EDGE_LOOP('',(#570));
#570 = ORIENTED_EDGE('',*,*,#571,.T.);
#571 = EDGE_CURVE('',#572,#572,#574,.T.);
#572 = VERTEX_POINT('',#573);
#573 = CARTESIAN_POINT('',(9.4998,-4.E-15,-19.506824));
#574 = CIRCLE('',#575,1.5);
#575 = AXIS2_PLACEMENT_3D('',#576,#577,#578);
#576 = CARTESIAN_POINT('',(7.9998,-4.33E-15,-19.506824));
#577 = DIRECTION('',(0.,0.,-1.));
#578 = DIRECTION('',(1.,0.,0.));
#579 = FACE_BOUND('',#580,.F.);
#580 = EDGE_LOOP('',(#581));
#581 = ORIENTED_EDGE('',*,*,#582,.T.);
#582 = EDGE_CURVE('',#583,#583,#585,.T.);
#583 = VERTEX_POINT('',#584);
#584 = CARTESIAN_POINT('',(-6.49857,13.998,-19.506824));
#585 = CIRCLE('',#586,1.5);
#586 = AXIS2_PLACEMENT_3D('',#587,#588,#589);
#587 = CARTESIAN_POINT('',(-7.99857,13.998,-19.506824));
#588 = DIRECTION('',(0.,0.,-1.));
#589 = DIRECTION('',(1.,0.,0.));
#590 = FACE_BOUND('',#591,.F.);
#591 = EDGE_LOOP('',(#592));
#592 = ORIENTED_EDGE('',*,*,#593,.T.);
#593 = EDGE_CURVE('',#594,#594,#596,.T.);
#594 = VERTEX_POINT('',#595);
#595 = CARTESIAN_POINT('',(9.50011,14.0002,-19.506824));
#596 = CIRCLE('',#597,1.5);
#597 = AXIS2_PLACEMENT_3D('',#598,#599,#600);
#598 = CARTESIAN_POINT('',(8.00011,14.0002,-19.506824));
#599 = DIRECTION('',(0.,0.,-1.));
#600 = DIRECTION('',(1.,0.,0.));
#601 = PLANE('',#602);
#602 = AXIS2_PLACEMENT_3D('',#603,#604,#605);
#603 = CARTESIAN_POINT('',(-12.457879,23.,-19.506824));
#604 = DIRECTION('',(0.,2.2E-16,1.));
#605 = DIRECTION('',(1.,0.,0.));
#606 = ADVANCED_FACE('',(#607),#618,.F.);
#607 = FACE_BOUND('',#608,.F.);
#608 = EDGE_LOOP('',(#609,#610,#616,#617));
#609 = ORIENTED_EDGE('',*,*,#540,.T.);
#610 = ORIENTED_EDGE('',*,*,#611,.T.);
#611 = EDGE_CURVE('',#533,#352,#612,.T.);
#612 = LINE('',#613,#614);
#613 = CARTESIAN_POINT('',(12.452121,-8.,-19.506824));
#614 = VECTOR('',#615,1.);
#615 = DIRECTION('',(0.,0.,1.));
#616 = ORIENTED_EDGE('',*,*,#351,.F.);
#617 = ORIENTED_EDGE('',*,*,#337,.F.);
#618 = PLANE('',#619);
#619 = AXIS2_PLACEMENT_3D('',#620,#621,#622);
#620 = CARTESIAN_POINT('',(12.452121,23.,-19.506824));
#621 = DIRECTION('',(-1.,0.,0.));
#622 = DIRECTION('',(0.,2.2E-16,1.));
#623 = ADVANCED_FACE('',(#624),#635,.F.);
#624 = FACE_BOUND('',#625,.F.);
#625 = EDGE_LOOP('',(#626,#627,#633,#634));
#626 = ORIENTED_EDGE('',*,*,#367,.T.);
#627 = ORIENTED_EDGE('',*,*,#628,.T.);
#628 = EDGE_CURVE('',#360,#525,#629,.T.);
#629 = LINE('',#630,#631);
#630 = CARTESIAN_POINT('',(-12.457879,-8.,-14.506824));
#631 = VECTOR('',#632,1.);
#632 = DIRECTION('',(0.,0.,-1.));
#633 = ORIENTED_EDGE('',*,*,#524,.F.);
#634 = ORIENTED_EDGE('',*,*,#312,.F.);
#635 = PLANE('',#636);
#636 = AXIS2_PLACEMENT_3D('',#637,#638,#639);
#637 = CARTESIAN_POINT('',(-12.457879,23.,-14.506824));
#638 = DIRECTION('',(1.,0.,0.));
#639 = DIRECTION('',(0.,-2.2E-16,-1.));
#640 = ADVANCED_FACE('',(#641),#647,.F.);
#641 = FACE_BOUND('',#642,.T.);
#642 = EDGE_LOOP('',(#643,#644,#645,#646));
#643 = ORIENTED_EDGE('',*,*,#532,.T.);
#644 = ORIENTED_EDGE('',*,*,#611,.T.);
#645 = ORIENTED_EDGE('',*,*,#359,.T.);
#646 = ORIENTED_EDGE('',*,*,#628,.T.);
#647 = PLANE('',#648);
#648 = AXIS2_PLACEMENT_3D('',#649,#650,#651);
#649 = CARTESIAN_POINT('',(-2.879000000001E-03,-8.,-17.006824));
#650 = DIRECTION('',(0.,1.,0.));
#651 = DIRECTION('',(0.,0.,1.));
#652 = ADVANCED_FACE('',(#653),#664,.F.);
#653 = FACE_BOUND('',#654,.F.);
#654 = EDGE_LOOP('',(#655,#656,#662,#663));
#655 = ORIENTED_EDGE('',*,*,#571,.F.);
#656 = ORIENTED_EDGE('',*,*,#657,.T.);
#657 = EDGE_CURVE('',#572,#379,#658,.T.);
#658 = LINE('',#659,#660);
#659 = CARTESIAN_POINT('',(9.4998,-4.33E-15,-29.506824));
#660 = VECTOR('',#661,1.);
#661 = DIRECTION('',(0.,0.,1.));
#662 = ORIENTED_EDGE('',*,*,#378,.T.);
#663 = ORIENTED_EDGE('',*,*,#657,.F.);
#664 = CYLINDRICAL_SURFACE('',#665,1.5);
#665 = AXIS2_PLACEMENT_3D('',#666,#667,#668);
#666 = CARTESIAN_POINT('',(7.9998,-4.33E-15,-29.506824));
#667 = DIRECTION('',(0.,0.,-1.));
#668 = DIRECTION('',(1.,0.,0.));
#669 = ADVANCED_FACE('',(#670),#681,.F.);
#670 = FACE_BOUND('',#671,.F.);
#671 = EDGE_LOOP('',(#672,#673,#679,#680));
#672 = ORIENTED_EDGE('',*,*,#549,.F.);
#673 = ORIENTED_EDGE('',*,*,#674,.T.);
#674 = EDGE_CURVE('',#550,#390,#675,.T.);
#675 = LINE('',#676,#677);
#676 = CARTESIAN_POINT('',(-6.4998,-4.33E-15,-29.506824));
#677 = VECTOR('',#678,1.);
#678 = DIRECTION('',(0.,0.,1.));
#679 = ORIENTED_EDGE('',*,*,#389,.T.);
#680 = ORIENTED_EDGE('',*,*,#674,.F.);
#681 = CYLINDRICAL_SURFACE('',#682,1.5);
#682 = AXIS2_PLACEMENT_3D('',#683,#684,#685);
#683 = CARTESIAN_POINT('',(-7.9998,-4.33E-15,-29.506824));
#684 = DIRECTION('',(0.,0.,-1.));
#685 = DIRECTION('',(1.,0.,0.));
#686 = ADVANCED_FACE('',(#687),#698,.F.);
#687 = FACE_BOUND('',#688,.F.);
#688 = EDGE_LOOP('',(#689,#690,#696,#697));
#689 = ORIENTED_EDGE('',*,*,#560,.F.);
#690 = ORIENTED_EDGE('',*,*,#691,.T.);
#691 = EDGE_CURVE('',#561,#401,#692,.T.);
#692 = LINE('',#693,#694);
#693 = CARTESIAN_POINT('',(5.,6.855556,-29.506824));
#694 = VECTOR('',#695,1.);
#695 = DIRECTION('',(0.,0.,1.));
#696 = ORIENTED_EDGE('',*,*,#400,.T.);
#697 = ORIENTED_EDGE('',*,*,#691,.F.);
#698 = CYLINDRICAL_SURFACE('',#699,5.);
#699 = AXIS2_PLACEMENT_3D('',#700,#701,#702);
#700 = CARTESIAN_POINT('',(0.,6.855556,-29.506824));
#701 = DIRECTION('',(0.,0.,-1.));
#702 = DIRECTION('',(1.,0.,0.));
#703 = ADVANCED_FACE('',(#704),#715,.F.);
#704 = FACE_BOUND('',#705,.F.);
#705 = EDGE_LOOP('',(#706,#707,#713,#714));
#706 = ORIENTED_EDGE('',*,*,#593,.F.);
#707 = ORIENTED_EDGE('',*,*,#708,.T.);
#708 = EDGE_CURVE('',#594,#412,#709,.T.);
#709 = LINE('',#710,#711);
#710 = CARTESIAN_POINT('',(9.50011,14.0002,-29.506824));
#711 = VECTOR('',#712,1.);
#712 = DIRECTION('',(0.,0.,1.));
#713 = ORIENTED_EDGE('',*,*,#411,.T.);
#714 = ORIENTED_EDGE('',*,*,#708,.F.);
#715 = CYLINDRICAL_SURFACE('',#716,1.5);
#716 = AXIS2_PLACEMENT_3D('',#717,#718,#719);
#717 = CARTESIAN_POINT('',(8.00011,14.0002,-29.506824));
#718 = DIRECTION('',(0.,0.,-1.));
#719 = DIRECTION('',(1.,0.,0.));
#720 = ADVANCED_FACE('',(#721),#732,.F.);
#721 = FACE_BOUND('',#722,.F.);
#722 = EDGE_LOOP('',(#723,#724,#730,#731));
#723 = ORIENTED_EDGE('',*,*,#582,.F.);
#724 = ORIENTED_EDGE('',*,*,#725,.T.);
#725 = EDGE_CURVE('',#583,#423,#726,.T.);
#726 = LINE('',#727,#728);
#727 = CARTESIAN_POINT('',(-6.49857,13.998,-29.506824));
#728 = VECTOR('',#729,1.);
#729 = DIRECTION('',(0.,0.,1.));
#730 = ORIENTED_EDGE('',*,*,#422,.T.);
#731 = ORIENTED_EDGE('',*,*,#725,.F.);
#732 = CYLINDRICAL_SURFACE('',#733,1.5);
#733 = AXIS2_PLACEMENT_3D('',#734,#735,#736);
#734 = CARTESIAN_POINT('',(-7.99857,13.998,-29.506824));
#735 = DIRECTION('',(0.,0.,-1.));
#736 = DIRECTION('',(1.,0.,0.));
#737 = ( GEOMETRIC_REPRESENTATION_CONTEXT(3) 
GLOBAL_UNCERTAINTY_ASSIGNED_CONTEXT((#741)) GLOBAL_UNIT_ASSIGNED_CONTEXT
((#738,#739,#740)) REPRESENTATION_CONTEXT('Context #1',
  '3D Context with UNIT and UNCERTAINTY') );
#738 = ( LENGTH_UNIT() NAMED_UNIT(*) SI_UNIT(.MILLI.,.METRE.) );
#739 = ( NAMED_UNIT(*) PLANE_ANGLE_UNIT() SI_UNIT($,.RADIAN.) );
#740 = ( NAMED_UNIT(*) SI_UNIT($,.STERADIAN.) SOLID_ANGLE_UNIT() );
#741 = UNCERTAINTY_MEASURE_WITH_UNIT(LENGTH_MEASURE(1.E-07),#738,
  'distance_accuracy_value','confusion accuracy');
#742 = PRODUCT_RELATED_PRODUCT_CATEGORY('part',$,(#7));
#743 = MECHANICAL_DESIGN_GEOMETRIC_PRESENTATION_REPRESENTATION('',(#744)
  ,#737);
#744 = STYLED_ITEM('color',(#745),#15);
#745 = PRESENTATION_STYLE_ASSIGNMENT((#746,#752));
#746 = SURFACE_STYLE_USAGE(.BOTH.,#747);
#747 = SURFACE_SIDE_STYLE('',(#748));
#748 = SURFACE_STYLE_FILL_AREA(#749);
#749 = FILL_AREA_STYLE('',(#750));
#750 = FILL_AREA_STYLE_COLOUR('',#751);
#751 = COLOUR_RGB('',0.447058818107,0.474509808674,0.501960817233);
#752 = CURVE_STYLE('',#753,POSITIVE_LENGTH_MEASURE(0.1),#754);
#753 = DRAUGHTING_PRE_DEFINED_CURVE_FONT('continuous');
#754 = COLOUR_RGB('',9.803921802644E-02,9.803921802644E-02,
  9.803921802644E-02);
ENDSEC;
END-ISO-10303-21;
